<svg xmlns="http://www.w3.org/2000/svg" xmlns:xlink="http://www.w3.org/1999/xlink" width="500" zoomAndPan="magnify" viewBox="0 0 375 374.999991" height="500" preserveAspectRatio="xMidYMid meet" version="1.0"><defs><g/><clipPath id="b774d594f6"><path d="M 36.617188 19.167969 L 176.367188 19.167969 L 176.367188 197.390625 L 36.617188 197.390625 Z M 36.617188 19.167969 " clip-rule="nonzero"/></clipPath><clipPath id="538ce839f1"><path d="M 36.617188 88.808594 C 36.617188 50.214844 67.902344 18.933594 106.492188 18.933594 C 145.085938 18.933594 176.367188 50.214844 176.367188 88.808594 L 176.367188 127.515625 C 176.367188 166.105469 145.085938 197.390625 106.492188 197.390625 C 67.902344 197.390625 36.617188 166.105469 36.617188 127.515625 Z M 36.617188 88.808594 " clip-rule="nonzero"/></clipPath><clipPath id="71c24f4bee"><rect x="0" width="137" y="0" height="19"/></clipPath><clipPath id="5610b075b2"><path d="M 0.359375 209 L 213.480469 209 L 213.480469 265 L 0.359375 265 Z M 0.359375 209 " clip-rule="nonzero"/></clipPath><clipPath id="9e7b79a5ae"><rect x="0" width="214" y="0" height="56"/></clipPath><clipPath id="cec0c229e2"><rect x="0" width="214" y="0" height="287"/></clipPath></defs><rect x="-37.5" width="450" fill="#ffffff" y="-37.499999" height="449.999989" fill-opacity="1"/><rect x="-37.5" width="450" fill="#ffffff" y="-37.499999" height="449.999989" fill-opacity="1"/><g transform="matrix(1, 0, 0, 1, 81, 31)"><g clip-path="url(#cec0c229e2)"><g clip-path="url(#b774d594f6)"><g clip-path="url(#538ce839f1)"><path stroke-linecap="butt" transform="matrix(0, -1.093396, 1.093396, 0, 36.618922, 197.390849)" fill="none" stroke-linejoin="miter" d="M 99.307363 -0.00158676 C 134.604507 -0.00158676 163.213772 28.61125 163.213772 63.904822 C 163.213772 99.201966 134.604507 127.811231 99.307363 127.811231 L 63.906614 127.811231 C 28.613042 127.811231 0.000204868 99.201966 0.000204868 63.904822 C 0.000204868 28.61125 28.613042 -0.00158676 63.906614 -0.00158676 Z M 99.307363 -0.00158676 " stroke="#a57d5d" stroke-width="6.859364" stroke-opacity="1" stroke-miterlimit="4"/></g></g><g fill="#a57d5d" fill-opacity="1"><g transform="translate(65.497524, 144.574532)"><g><path d="M 2.828125 -16.46875 C 2.828125 -20.351562 3.734375 -23.847656 5.546875 -26.953125 C 7.367188 -30.054688 9.707031 -32.878906 12.5625 -35.421875 C 15.414062 -37.960938 18.441406 -40.285156 21.640625 -42.390625 C 24.835938 -44.492188 27.863281 -46.4375 30.71875 -48.21875 C 33.570312 -50.007812 35.90625 -51.71875 37.71875 -53.34375 C 39.539062 -54.976562 40.453125 -56.613281 40.453125 -58.25 C 40.453125 -59.125 40.234375 -59.765625 39.796875 -60.171875 C 39.359375 -60.578125 38.828125 -60.78125 38.203125 -60.78125 C 37.078125 -60.78125 36.023438 -60.28125 35.046875 -59.28125 C 34.078125 -58.28125 33.117188 -57.132812 32.171875 -55.84375 C 31.234375 -54.5625 30.210938 -53.414062 29.109375 -52.40625 C 28.015625 -51.40625 26.8125 -50.90625 25.5 -50.90625 C 24.1875 -50.90625 23.382812 -51.4375 23.09375 -52.5 C 22.8125 -53.570312 22.890625 -54.703125 23.328125 -55.890625 C 24.773438 -59.648438 26.09375 -63.144531 27.28125 -66.375 C 28.476562 -69.613281 29.65625 -72.753906 30.8125 -75.796875 C 31.976562 -78.835938 33.171875 -81.988281 34.390625 -85.25 C 35.609375 -88.507812 36.972656 -92.082031 38.484375 -95.96875 L 39.421875 -95.96875 L 69.53125 -16.46875 C 71.601562 -11.320312 73.546875 -7.445312 75.359375 -4.84375 C 77.179688 -2.238281 79.535156 -0.9375 82.421875 -0.9375 L 82.421875 0 L 51.5625 0 L 51.5625 -0.9375 C 54.882812 -0.9375 57.40625 -1.375 59.125 -2.25 C 60.851562 -3.132812 61.96875 -4.359375 62.46875 -5.921875 C 62.976562 -7.492188 63.046875 -9.3125 62.671875 -11.375 C 62.296875 -13.445312 61.664062 -15.675781 60.78125 -18.0625 L 49.109375 -48.828125 C 49.492188 -45.816406 49.6875 -42.054688 49.6875 -37.546875 C 49.6875 -29.953125 48.507812 -23.175781 46.15625 -17.21875 C 43.800781 -11.257812 40.410156 -6.585938 35.984375 -3.203125 C 31.566406 0.179688 26.222656 1.875 19.953125 1.875 C 16.304688 1.875 13.210938 1.03125 10.671875 -0.65625 C 8.140625 -2.351562 6.195312 -4.597656 4.84375 -7.390625 C 3.5 -10.179688 2.828125 -13.207031 2.828125 -16.46875 Z M 10.828125 -18.25 C 10.828125 -13.863281 12.140625 -10.164062 14.765625 -7.15625 C 17.398438 -4.144531 21.007812 -2.640625 25.59375 -2.640625 C 29.539062 -2.640625 32.957031 -3.703125 35.84375 -5.828125 C 38.726562 -7.960938 41.128906 -10.753906 43.046875 -14.203125 C 44.960938 -17.660156 46.390625 -21.425781 47.328125 -25.5 C 48.265625 -29.570312 48.734375 -33.523438 48.734375 -37.359375 C 48.734375 -40.867188 48.625 -44.003906 48.40625 -46.765625 C 48.1875 -49.523438 47.640625 -52.285156 46.765625 -55.046875 L 35.375 -85.0625 L 24.5625 -56.265625 C 23.9375 -54.640625 23.765625 -53.492188 24.046875 -52.828125 C 24.328125 -52.171875 24.84375 -51.84375 25.59375 -51.84375 C 26.65625 -51.84375 27.6875 -52.34375 28.6875 -53.34375 C 29.695312 -54.351562 30.703125 -55.5 31.703125 -56.78125 C 32.710938 -58.070312 33.765625 -59.21875 34.859375 -60.21875 C 35.960938 -61.21875 37.140625 -61.71875 38.390625 -61.71875 C 39.265625 -61.71875 40 -61.421875 40.59375 -60.828125 C 41.195312 -60.234375 41.5 -59.3125 41.5 -58.0625 C 41.5 -55.988281 40.757812 -54.085938 39.28125 -52.359375 C 37.8125 -50.640625 35.914062 -48.960938 33.59375 -47.328125 C 31.269531 -45.691406 28.789062 -43.960938 26.15625 -42.140625 C 23.519531 -40.328125 21.039062 -38.304688 18.71875 -36.078125 C 16.40625 -33.859375 14.507812 -31.304688 13.03125 -28.421875 C 11.5625 -25.535156 10.828125 -22.144531 10.828125 -18.25 Z M 10.828125 -18.25 "/></g></g></g><g transform="matrix(1, 0, 0, 1, 37, 268)"><g clip-path="url(#71c24f4bee)"><g fill="#a57d5d" fill-opacity="1"><g transform="translate(0.955422, 14.865956)"><g><path d="M 1.5625 -10.453125 L 5.96875 -10.453125 C 7.070312 -10.453125 8.050781 -10.226562 8.90625 -9.78125 C 9.757812 -9.34375 10.421875 -8.726562 10.890625 -7.9375 C 11.367188 -7.15625 11.609375 -6.25 11.609375 -5.21875 C 11.609375 -4.195312 11.367188 -3.289062 10.890625 -2.5 C 10.421875 -1.707031 9.757812 -1.09375 8.90625 -0.65625 C 8.050781 -0.21875 7.070312 0 5.96875 0 L 1.5625 0 Z M 5.875 -1.296875 C 6.71875 -1.296875 7.460938 -1.457031 8.109375 -1.78125 C 8.753906 -2.113281 9.25 -2.578125 9.59375 -3.171875 C 9.9375 -3.765625 10.109375 -4.445312 10.109375 -5.21875 C 10.109375 -6 9.9375 -6.679688 9.59375 -7.265625 C 9.25 -7.859375 8.753906 -8.316406 8.109375 -8.640625 C 7.460938 -8.972656 6.71875 -9.140625 5.875 -9.140625 L 3.0625 -9.140625 L 3.0625 -1.296875 Z M 5.875 -1.296875 "/></g></g></g><g fill="#a57d5d" fill-opacity="1"><g transform="translate(16.271479, 14.865956)"><g><path d="M 9.140625 -1.296875 L 9.140625 0 L 1.5625 0 L 1.5625 -10.453125 L 8.9375 -10.453125 L 8.9375 -9.140625 L 3.0625 -9.140625 L 3.0625 -5.9375 L 8.296875 -5.9375 L 8.296875 -4.671875 L 3.0625 -4.671875 L 3.0625 -1.296875 Z M 9.140625 -1.296875 "/></g></g></g><g fill="#a57d5d" fill-opacity="1"><g transform="translate(29.259091, 14.865956)"><g><path d="M 6.234375 0.125 C 5.191406 0.125 4.25 -0.101562 3.40625 -0.5625 C 2.570312 -1.03125 1.914062 -1.671875 1.4375 -2.484375 C 0.957031 -3.296875 0.71875 -4.207031 0.71875 -5.21875 C 0.71875 -6.238281 0.957031 -7.148438 1.4375 -7.953125 C 1.914062 -8.765625 2.578125 -9.398438 3.421875 -9.859375 C 4.265625 -10.328125 5.207031 -10.5625 6.25 -10.5625 C 7.0625 -10.5625 7.804688 -10.425781 8.484375 -10.15625 C 9.160156 -9.882812 9.738281 -9.476562 10.21875 -8.9375 L 9.25 -8 C 8.46875 -8.820312 7.488281 -9.234375 6.3125 -9.234375 C 5.53125 -9.234375 4.828125 -9.054688 4.203125 -8.703125 C 3.578125 -8.359375 3.085938 -7.878906 2.734375 -7.265625 C 2.378906 -6.660156 2.203125 -5.976562 2.203125 -5.21875 C 2.203125 -4.46875 2.378906 -3.785156 2.734375 -3.171875 C 3.085938 -2.554688 3.578125 -2.070312 4.203125 -1.71875 C 4.828125 -1.375 5.53125 -1.203125 6.3125 -1.203125 C 7.476562 -1.203125 8.457031 -1.625 9.25 -2.46875 L 10.21875 -1.515625 C 9.738281 -0.984375 9.160156 -0.578125 8.484375 -0.296875 C 7.804688 -0.015625 7.054688 0.125 6.234375 0.125 Z M 6.234375 0.125 "/></g></g></g><g fill="#a57d5d" fill-opacity="1"><g transform="translate(43.037785, 14.865956)"><g><path d="M 6.28125 0.125 C 5.226562 0.125 4.273438 -0.101562 3.421875 -0.5625 C 2.578125 -1.03125 1.914062 -1.671875 1.4375 -2.484375 C 0.957031 -3.304688 0.71875 -4.21875 0.71875 -5.21875 C 0.71875 -6.226562 0.957031 -7.140625 1.4375 -7.953125 C 1.914062 -8.765625 2.578125 -9.398438 3.421875 -9.859375 C 4.273438 -10.328125 5.226562 -10.5625 6.28125 -10.5625 C 7.320312 -10.5625 8.265625 -10.328125 9.109375 -9.859375 C 9.960938 -9.398438 10.625 -8.765625 11.09375 -7.953125 C 11.570312 -7.148438 11.8125 -6.238281 11.8125 -5.21875 C 11.8125 -4.207031 11.570312 -3.296875 11.09375 -2.484375 C 10.625 -1.671875 9.960938 -1.03125 9.109375 -0.5625 C 8.265625 -0.101562 7.320312 0.125 6.28125 0.125 Z M 6.28125 -1.203125 C 7.050781 -1.203125 7.738281 -1.375 8.34375 -1.71875 C 8.957031 -2.070312 9.441406 -2.554688 9.796875 -3.171875 C 10.148438 -3.785156 10.328125 -4.46875 10.328125 -5.21875 C 10.328125 -5.976562 10.148438 -6.660156 9.796875 -7.265625 C 9.441406 -7.878906 8.957031 -8.359375 8.34375 -8.703125 C 7.738281 -9.054688 7.050781 -9.234375 6.28125 -9.234375 C 5.519531 -9.234375 4.828125 -9.054688 4.203125 -8.703125 C 3.578125 -8.359375 3.085938 -7.878906 2.734375 -7.265625 C 2.378906 -6.660156 2.203125 -5.976562 2.203125 -5.21875 C 2.203125 -4.46875 2.378906 -3.785156 2.734375 -3.171875 C 3.085938 -2.554688 3.578125 -2.070312 4.203125 -1.71875 C 4.828125 -1.375 5.519531 -1.203125 6.28125 -1.203125 Z M 6.28125 -1.203125 "/></g></g></g><g fill="#a57d5d" fill-opacity="1"><g transform="translate(58.5628, 14.865956)"><g><path d="M 8.546875 0 L 6.296875 -3.203125 C 6.015625 -3.179688 5.796875 -3.171875 5.640625 -3.171875 L 3.0625 -3.171875 L 3.0625 0 L 1.5625 0 L 1.5625 -10.453125 L 5.640625 -10.453125 C 6.992188 -10.453125 8.054688 -10.125 8.828125 -9.46875 C 9.609375 -8.820312 10 -7.929688 10 -6.796875 C 10 -5.992188 9.796875 -5.304688 9.390625 -4.734375 C 8.992188 -4.171875 8.429688 -3.757812 7.703125 -3.5 L 10.171875 0 Z M 5.59375 -4.453125 C 6.539062 -4.453125 7.257812 -4.65625 7.75 -5.0625 C 8.25 -5.46875 8.5 -6.046875 8.5 -6.796875 C 8.5 -7.554688 8.25 -8.132812 7.75 -8.53125 C 7.257812 -8.9375 6.539062 -9.140625 5.59375 -9.140625 L 3.0625 -9.140625 L 3.0625 -4.453125 Z M 5.59375 -4.453125 "/></g></g></g><g fill="#a57d5d" fill-opacity="1"><g transform="translate(72.401196, 14.865956)"><g><path d="M 8.21875 -2.609375 L 2.671875 -2.609375 L 1.515625 0 L -0.015625 0 L 4.71875 -10.453125 L 6.1875 -10.453125 L 10.9375 0 L 9.375 0 Z M 7.703125 -3.8125 L 5.453125 -8.921875 L 3.1875 -3.8125 Z M 7.703125 -3.8125 "/></g></g></g><g fill="#a57d5d" fill-opacity="1"><g transform="translate(86.314213, 14.865956)"><g><path d="M 3.640625 -9.140625 L 0.0625 -9.140625 L 0.0625 -10.453125 L 8.703125 -10.453125 L 8.703125 -9.140625 L 5.125 -9.140625 L 5.125 0 L 3.640625 0 Z M 3.640625 -9.140625 "/></g></g></g><g fill="#a57d5d" fill-opacity="1"><g transform="translate(98.06299, 14.865956)"><g><path d="M 1.5625 -10.453125 L 3.0625 -10.453125 L 3.0625 0 L 1.5625 0 Z M 1.5625 -10.453125 "/></g></g></g><g fill="#a57d5d" fill-opacity="1"><g transform="translate(105.677298, 14.865956)"><g><path d="M 6.28125 0.125 C 5.226562 0.125 4.273438 -0.101562 3.421875 -0.5625 C 2.578125 -1.03125 1.914062 -1.671875 1.4375 -2.484375 C 0.957031 -3.304688 0.71875 -4.21875 0.71875 -5.21875 C 0.71875 -6.226562 0.957031 -7.140625 1.4375 -7.953125 C 1.914062 -8.765625 2.578125 -9.398438 3.421875 -9.859375 C 4.273438 -10.328125 5.226562 -10.5625 6.28125 -10.5625 C 7.320312 -10.5625 8.265625 -10.328125 9.109375 -9.859375 C 9.960938 -9.398438 10.625 -8.765625 11.09375 -7.953125 C 11.570312 -7.148438 11.8125 -6.238281 11.8125 -5.21875 C 11.8125 -4.207031 11.570312 -3.296875 11.09375 -2.484375 C 10.625 -1.671875 9.960938 -1.03125 9.109375 -0.5625 C 8.265625 -0.101562 7.320312 0.125 6.28125 0.125 Z M 6.28125 -1.203125 C 7.050781 -1.203125 7.738281 -1.375 8.34375 -1.71875 C 8.957031 -2.070312 9.441406 -2.554688 9.796875 -3.171875 C 10.148438 -3.785156 10.328125 -4.46875 10.328125 -5.21875 C 10.328125 -5.976562 10.148438 -6.660156 9.796875 -7.265625 C 9.441406 -7.878906 8.957031 -8.359375 8.34375 -8.703125 C 7.738281 -9.054688 7.050781 -9.234375 6.28125 -9.234375 C 5.519531 -9.234375 4.828125 -9.054688 4.203125 -8.703125 C 3.578125 -8.359375 3.085938 -7.878906 2.734375 -7.265625 C 2.378906 -6.660156 2.203125 -5.976562 2.203125 -5.21875 C 2.203125 -4.46875 2.378906 -3.785156 2.734375 -3.171875 C 3.085938 -2.554688 3.578125 -2.070312 4.203125 -1.71875 C 4.828125 -1.375 5.519531 -1.203125 6.28125 -1.203125 Z M 6.28125 -1.203125 "/></g></g></g><g fill="#a57d5d" fill-opacity="1"><g transform="translate(121.202314, 14.865956)"><g><path d="M 10.546875 -10.453125 L 10.546875 0 L 9.328125 0 L 3.0625 -7.796875 L 3.0625 0 L 1.5625 0 L 1.5625 -10.453125 L 2.796875 -10.453125 L 9.0625 -2.65625 L 9.0625 -10.453125 Z M 10.546875 -10.453125 "/></g></g></g></g></g><g clip-path="url(#5610b075b2)"><g transform="matrix(1, 0, 0, 1, 0, 209)"><g clip-path="url(#9e7b79a5ae)"><g fill="#a57d5d" fill-opacity="1"><g transform="translate(0.503228, 44.13486)"><g><path d="M 28.40625 0.046875 L 22.546875 -13.6875 L 9.234375 -13.6875 L 3.15625 0.046875 L 1.90625 0.046875 L 17.375 -34.765625 L 17.703125 -34.765625 L 32.59375 0.046875 Z M 9.671875 -14.5625 L 22.15625 -14.5625 L 16.015625 -28.890625 Z M 9.671875 -14.5625 "/></g></g></g><g fill="#a57d5d" fill-opacity="1"><g transform="translate(35.043665, 44.13486)"><g><path d="M 26.5 0.046875 L 21.609375 0.046875 L 9.015625 -15.8125 L 6.515625 -15.8125 L 6.515625 0.046875 L 2.609375 0.046875 L 2.609375 -34.109375 C 2.609375 -34.109375 3.015625 -34.109375 3.828125 -34.109375 C 4.640625 -34.109375 5.625 -34.109375 6.78125 -34.109375 C 7.945312 -34.109375 9.097656 -34.109375 10.234375 -34.109375 C 11.378906 -34.109375 12.273438 -34.109375 12.921875 -34.109375 C 13.609375 -34.109375 14.554688 -34.007812 15.765625 -33.8125 C 16.984375 -33.613281 18.207031 -33.222656 19.4375 -32.640625 C 20.675781 -32.054688 21.71875 -31.191406 22.5625 -30.046875 C 23.414062 -28.910156 23.84375 -27.421875 23.84375 -25.578125 C 23.84375 -23.804688 23.515625 -22.335938 22.859375 -21.171875 C 22.210938 -20.015625 21.363281 -19.082031 20.3125 -18.375 C 19.257812 -17.675781 18.15625 -17.144531 17 -16.78125 C 15.84375 -16.414062 14.753906 -16.160156 13.734375 -16.015625 Z M 6.515625 -33.1875 L 6.515625 -16.734375 L 9.453125 -16.734375 C 12.640625 -16.734375 15.15625 -17.347656 17 -18.578125 C 18.84375 -19.804688 19.765625 -21.921875 19.765625 -24.921875 C 19.765625 -27.929688 18.976562 -30.0625 17.40625 -31.3125 C 15.832031 -32.5625 13.648438 -33.1875 10.859375 -33.1875 Z M 6.515625 -33.1875 "/></g></g></g><g fill="#a57d5d" fill-opacity="1"><g transform="translate(63.392895, 44.13486)"><g><path d="M 30.84375 -3.09375 L 30.84375 -1.84375 C 30.84375 -1.84375 30.441406 -1.609375 29.640625 -1.140625 C 28.847656 -0.671875 27.671875 -0.203125 26.109375 0.265625 C 24.554688 0.742188 22.640625 0.984375 20.359375 0.984375 C 18.984375 0.984375 17.488281 0.828125 15.875 0.515625 C 14.269531 0.203125 12.660156 -0.347656 11.046875 -1.140625 C 9.441406 -1.929688 7.96875 -3.003906 6.625 -4.359375 C 5.28125 -5.722656 4.203125 -7.425781 3.390625 -9.46875 C 2.578125 -11.519531 2.171875 -13.992188 2.171875 -16.890625 C 2.171875 -20.035156 2.675781 -22.738281 3.6875 -25 C 4.707031 -27.269531 6.09375 -29.117188 7.84375 -30.546875 C 9.601562 -31.984375 11.601562 -33.046875 13.84375 -33.734375 C 16.09375 -34.421875 18.429688 -34.765625 20.859375 -34.765625 C 22.921875 -34.765625 24.703125 -34.570312 26.203125 -34.1875 C 27.703125 -33.8125 28.847656 -33.441406 29.640625 -33.078125 C 30.441406 -32.710938 30.84375 -32.53125 30.84375 -32.53125 L 30.84375 -31.34375 C 30.84375 -31.34375 30.453125 -31.550781 29.671875 -31.96875 C 28.898438 -32.382812 27.769531 -32.800781 26.28125 -33.21875 C 24.800781 -33.632812 22.992188 -33.84375 20.859375 -33.84375 C 19.804688 -33.84375 18.628906 -33.703125 17.328125 -33.421875 C 16.023438 -33.148438 14.71875 -32.648438 13.40625 -31.921875 C 12.101562 -31.203125 10.898438 -30.207031 9.796875 -28.9375 C 8.691406 -27.675781 7.804688 -26.054688 7.140625 -24.078125 C 6.472656 -22.109375 6.140625 -19.710938 6.140625 -16.890625 C 6.140625 -13.335938 6.609375 -10.4375 7.546875 -8.1875 C 8.492188 -5.945312 9.71875 -4.226562 11.21875 -3.03125 C 12.71875 -1.84375 14.316406 -1.019531 16.015625 -0.5625 C 17.722656 -0.113281 19.335938 0.109375 20.859375 0.109375 C 22.953125 0.109375 24.738281 -0.148438 26.21875 -0.671875 C 27.707031 -1.203125 28.847656 -1.738281 29.640625 -2.28125 C 30.441406 -2.820312 30.84375 -3.09375 30.84375 -3.09375 Z M 30.84375 -3.09375 "/></g></g></g><g fill="#a57d5d" fill-opacity="1"><g transform="translate(96.521311, 44.13486)"><g><path d="M 28.40625 0.046875 L 22.546875 -13.6875 L 9.234375 -13.6875 L 3.15625 0.046875 L 1.90625 0.046875 L 17.375 -34.765625 L 17.703125 -34.765625 L 32.59375 0.046875 Z M 9.671875 -14.5625 L 22.15625 -14.5625 L 16.015625 -28.890625 Z M 9.671875 -14.5625 "/></g></g></g><g fill="#a57d5d" fill-opacity="1"><g transform="translate(131.061748, 44.13486)"><g><path d="M 16.734375 -34.109375 C 17.960938 -34.109375 19.34375 -34 20.875 -33.78125 C 22.414062 -33.5625 23.957031 -33.144531 25.5 -32.53125 C 27.039062 -31.914062 28.441406 -31.007812 29.703125 -29.8125 C 30.972656 -28.625 31.992188 -27.03125 32.765625 -25.03125 C 33.546875 -23.039062 33.9375 -20.5625 33.9375 -17.59375 C 33.9375 -14.519531 33.503906 -11.941406 32.640625 -9.859375 C 31.773438 -7.773438 30.632812 -6.085938 29.21875 -4.796875 C 27.8125 -3.515625 26.300781 -2.53125 24.6875 -1.84375 C 23.070312 -1.15625 21.515625 -0.679688 20.015625 -0.421875 C 18.515625 -0.171875 17.226562 -0.03125 16.15625 0 C 15.09375 0.03125 14.414062 0.046875 14.125 0.046875 L 2.609375 0.046875 L 2.609375 -34.109375 Z M 14.0625 -0.875 C 15.914062 -0.875 17.78125 -1.125 19.65625 -1.625 C 21.539062 -2.132812 23.257812 -3.003906 24.8125 -4.234375 C 26.375 -5.460938 27.625 -7.160156 28.5625 -9.328125 C 29.507812 -11.503906 29.984375 -14.257812 29.984375 -17.59375 C 29.984375 -20.238281 29.65625 -22.484375 29 -24.328125 C 28.351562 -26.179688 27.476562 -27.6875 26.375 -28.84375 C 25.269531 -30 24.046875 -30.882812 22.703125 -31.5 C 21.359375 -32.113281 19.988281 -32.535156 18.59375 -32.765625 C 17.207031 -33.003906 15.898438 -33.125 14.671875 -33.125 L 6.515625 -33.125 L 6.515625 -0.875 Z M 14.0625 -0.875 "/></g></g></g><g fill="#a57d5d" fill-opacity="1"><g transform="translate(167.503, 44.13486)"><g><path d="M 3.15625 0.046875 L 3.15625 -34.109375 L 7.0625 -34.109375 L 7.0625 0.046875 Z M 3.15625 0.046875 "/></g></g></g><g fill="#a57d5d" fill-opacity="1"><g transform="translate(177.930303, 44.13486)"><g><path d="M 28.40625 0.046875 L 22.546875 -13.6875 L 9.234375 -13.6875 L 3.15625 0.046875 L 1.90625 0.046875 L 17.375 -34.765625 L 17.703125 -34.765625 L 32.59375 0.046875 Z M 9.671875 -14.5625 L 22.15625 -14.5625 L 16.015625 -28.890625 Z M 9.671875 -14.5625 "/></g></g></g></g></g></g></g></g></svg>